<svg width="803" height="119" viewBox="0 0 803 119" fill="none" xmlns="http://www.w3.org/2000/svg">
<path d="M131.658 70.0547C135.419 72.0215 139.439 73.5742 143.718 74.7129C148.031 75.8516 151.792 76.4209 155.001 76.4209C158.21 76.4209 160.539 75.9206 161.988 74.9199C163.472 73.8848 164.214 72.5046 164.214 70.7793C164.214 68.8815 163.006 67.1908 160.591 65.707C159.211 64.8444 155.95 63.2572 150.809 60.9453C145.667 58.6335 141.872 56.4251 139.422 54.3203C134.557 50.1797 132.124 44.5898 132.124 37.5508C132.124 30.4772 134.677 24.9909 139.784 21.0918C144.891 17.1927 151.861 15.2432 160.694 15.2432C168.527 15.2432 176.515 17.0547 184.658 20.6777L178.344 36.4639C171.339 33.2204 165.249 31.5986 160.073 31.5986C157.52 31.5986 155.605 32.0472 154.328 32.9443C153.086 33.8415 152.465 35.0146 152.465 36.4639C152.465 37.9131 153.224 39.2588 154.742 40.501C156.088 41.5361 160.108 43.5892 166.802 46.6602C173.53 49.6966 178.188 52.9229 180.776 56.3389C183.364 59.7204 184.658 63.9473 184.658 69.0195C184.658 69.1576 184.658 69.2956 184.658 69.4336C184.658 76.3346 181.984 81.9935 176.636 86.4102C171.322 90.8268 164.317 93.0352 155.622 93.0352C155.415 93.0352 155.208 93.0352 155.001 93.0352C150.067 93.0352 145.857 92.6901 142.372 92C138.887 91.2754 135.316 90.0332 131.658 88.2734V70.0547Z" fill="#009999"/>
<path d="M260.69 16.3301V61.877C260.69 71.8145 257.896 79.4919 252.306 84.9092C246.716 90.3265 238.676 93.0352 228.187 93.0352C217.731 93.0352 209.743 90.3955 204.223 85.1162C198.702 79.8369 195.941 72.2458 195.941 62.3428V16.3301H216.489V60.7383C216.489 66.0176 217.473 69.8822 219.439 72.332C221.406 74.7819 224.425 76.0068 228.497 76.0068C232.569 76.0068 235.536 74.8164 237.399 72.4355C239.297 70.0202 240.246 66.0866 240.246 60.6348V16.3301H260.69Z" fill="#009999"/>
<path d="M276.58 16.3301H301.372C321.937 16.3301 332.22 23.7832 332.22 38.6895C332.22 47.4538 327.924 54.2341 319.332 59.0303L341.433 92H318.245L302.2 64.4648H297.024V92H276.58V16.3301ZM297.024 31.8057V49.0928H300.854C307.997 49.0928 311.568 45.9355 311.568 39.6211C311.568 34.4108 308.066 31.8057 301.062 31.8057H297.024Z" fill="#009999"/>
<path d="M393.035 32.7373H368.45V47.1777H391.068V63.585H368.45V92H348.316V16.3301H393.035V32.7373Z" fill="#009999"/>
<path d="M401.938 70.0547C405.699 72.0215 409.718 73.5742 413.997 74.7129C418.31 75.8516 422.071 76.4209 425.28 76.4209C428.489 76.4209 430.818 75.9206 432.268 74.9199C433.751 73.8848 434.493 72.5046 434.493 70.7793C434.493 68.8815 433.285 67.1908 430.87 65.707C429.49 64.8444 426.229 63.2572 421.088 60.9453C415.947 58.6335 412.151 56.4251 409.701 54.3203C404.836 50.1797 402.403 44.5898 402.403 37.5508C402.403 30.4772 404.957 24.9909 410.063 21.0918C415.17 17.1927 422.14 15.2432 430.974 15.2432C438.806 15.2432 446.794 17.0547 454.938 20.6777L448.623 36.4639C441.618 33.2204 435.528 31.5986 430.353 31.5986C427.799 31.5986 425.884 32.0472 424.607 32.9443C423.365 33.8415 422.744 35.0146 422.744 36.4639C422.744 37.9131 423.503 39.2588 425.021 40.501C426.367 41.5361 430.387 43.5892 437.081 46.6602C443.81 49.6966 448.468 52.9229 451.056 56.3389C453.644 59.7204 454.938 63.9473 454.938 69.0195C454.938 69.1576 454.938 69.2956 454.938 69.4336C454.938 76.3346 452.263 81.9935 446.915 86.4102C441.601 90.8268 434.597 93.0352 425.901 93.0352C425.694 93.0352 425.487 93.0352 425.28 93.0352C420.346 93.0352 416.136 92.6901 412.651 92C409.166 91.2754 405.595 90.0332 401.938 88.2734V70.0547Z" fill="#009999"/>
<path d="M487.183 102.17H466.635V26.5H487.183V59.3662C488.321 57.1579 490.409 53.9316 493.445 49.6875L509.283 26.5H531.694L507.834 60.4014L531.332 108L508.196 102.17L493.238 73.2373L487.183 76.8604V102.17Z" fill="#009999"/>
<path d="M608.296 92H585.937L582.158 77.8184H557.625L553.795 92H531.332L556.021 16.0195H583.297L608.296 92ZM577.966 61.0488L574.705 48.627C572.462 40.7253 570.823 34.014 569.788 28.4932C569.478 30.2529 568.856 33.1514 567.925 37.1885C567.097 41.0876 565.078 49.041 561.869 61.0488H577.966Z" fill="#009999"/>
<path d="M668.335 33.0479H649.909V92H629.465V33.0479H610.987V16.3301H668.335V33.0479Z" fill="#009999"/>
<path d="M724.078 32.7373H699.597V44.6416H722.215V61.0488H699.597V75.334H724.078V92H679.152V16.3301H724.078V32.7373Z" fill="#009999"/>
<path d="M737.328 16.3301H762.12C782.685 16.3301 792.968 23.7832 792.968 38.6895C792.968 47.4538 788.672 54.2341 780.08 59.0303L802.181 92H778.993L762.948 64.4648H757.772V92H737.328V16.3301ZM757.772 31.8057V49.0928H761.603C768.745 49.0928 772.316 45.9355 772.316 39.6211C772.316 34.4108 768.814 31.8057 761.81 31.8057H757.772Z" fill="#009999"/>
<path d="M74.7209 20.6322C73.6851 19.5965 72.4556 18.7749 71.1023 18.2144C69.7491 17.6538 68.2987 17.3653 66.834 17.3653C65.3693 17.3653 63.9189 17.6538 62.5657 18.2144C61.2124 18.7749 59.9829 19.5965 58.9471 20.6322C57.9114 21.6679 57.0898 22.8975 56.5293 24.2507C55.9688 25.6039 55.6803 27.0543 55.6803 28.519C55.6803 29.9838 55.9688 31.4342 56.5293 32.7874C57.0898 34.1406 57.9114 35.3702 58.9471 36.4059L66.834 28.519L74.7209 20.6322Z" fill="#F2CB00"/>
<path fill-rule="evenodd" clip-rule="evenodd" d="M77.7478 2.17088C81.2079 3.6041 84.3518 5.70479 87 8.35303L79.227 16.126C77.5996 14.4985 75.6675 13.2076 73.5411 12.3268C71.4147 11.446 69.1356 10.9927 66.834 10.9927C64.5324 10.9927 62.2534 11.446 60.127 12.3268C58.0006 13.2076 56.0685 14.4985 54.441 16.126C52.8135 17.7535 51.5225 19.6856 50.6418 21.812C49.761 23.9384 49.3076 26.2174 49.3076 28.519C49.3076 30.8206 49.761 33.0997 50.6418 35.2261C51.5225 37.3525 52.8135 39.2846 54.441 40.9121L46.668 48.685C44.0198 46.0368 41.9191 42.8929 40.4859 39.4328C39.0526 35.9727 38.315 32.2642 38.315 28.519C38.315 24.7739 39.0526 21.0654 40.4859 17.6053C41.9191 14.1452 44.0198 11.0013 46.668 8.35303C49.3162 5.7048 52.4602 3.6041 55.9202 2.17088C59.3803 0.737667 63.0888 2.39701e-07 66.834 0C70.5792 -2.39701e-07 74.2877 0.737666 77.7478 2.17088Z" fill="#00C4CB"/>
<path d="M19.862 85.6268C21.5373 87.3021 23.5262 88.631 25.7151 89.5377C27.904 90.4444 30.2501 90.911 32.6193 90.911C34.9886 90.911 37.3346 90.4444 39.5235 89.5377C41.7124 88.631 43.7013 87.3021 45.3767 85.6268C47.052 83.9514 48.3809 81.9626 49.2876 79.7737C50.1942 77.5848 50.6609 75.2387 50.6609 72.8694C50.6609 70.5002 50.1942 68.1541 49.2876 65.9652C48.3809 63.7763 47.052 61.7874 45.3767 60.1121L32.6193 72.8694L19.862 85.6268Z" fill="#F2CB00"/>
<path fill-rule="evenodd" clip-rule="evenodd" d="M14.9659 115.489C9.36904 113.17 4.28363 109.772 0 105.489L13.7727 91.7161C16.2477 94.191 19.1859 96.1543 22.4196 97.4938C25.6533 98.8332 29.1192 99.5226 32.6194 99.5226C36.1195 99.5226 39.5854 98.8332 42.8191 97.4938C46.0528 96.1543 48.9911 94.191 51.466 91.7161C53.941 89.2411 55.9043 86.3029 57.2437 83.0691C58.5832 79.8354 59.2726 76.3695 59.2726 72.8694C59.2726 69.3692 58.5832 65.9034 57.2437 62.6696C55.9043 59.4359 53.941 56.4977 51.466 54.0227L65.2387 40.2501C69.5223 44.5337 72.9202 49.6191 75.2385 55.2159C77.5568 60.8128 78.75 66.8114 78.75 72.8694C78.75 78.9274 77.5568 84.926 75.2385 90.5228C72.9202 96.1197 69.5223 101.205 65.2387 105.489C60.955 109.772 55.8696 113.17 50.2728 115.489C44.6759 117.807 38.6773 119 32.6193 119C26.5614 119 20.5627 117.807 14.9659 115.489Z" fill="#00C4CB"/>
</svg>
